<svg width="175" height="24" viewBox="0 0 175 24" fill="none" xmlns="http://www.w3.org/2000/svg">
<path d="M18.41 21.17C18.17 21.37 17.72 21.64 17.06 21.98C16.42 22.32 15.63 22.62 14.69 22.88C13.75 23.14 12.71 23.26 11.57 23.24C9.83 23.2 8.27 22.89 6.89 22.31C5.53 21.71 4.37 20.9 3.41 19.88C2.47 18.86 1.75 17.69 1.25 16.37C0.75 15.05 0.5 13.64 0.5 12.14C0.5 10.46 0.75 8.92 1.25 7.52C1.77 6.12 2.5 4.91 3.44 3.89C4.4 2.87 5.54 2.08 6.86 1.52C8.18 0.959999 9.64 0.679999 11.24 0.679999C12.72 0.679999 14.03 0.879999 15.17 1.28C16.31 1.68 17.24 2.11 17.96 2.57L16.25 6.68C15.75 6.3 15.08 5.91 14.24 5.51C13.42 5.09 12.47 4.88 11.39 4.88C10.55 4.88 9.74 5.06 8.96 5.42C8.2 5.76 7.52 6.25 6.92 6.89C6.34 7.53 5.88 8.28 5.54 9.14C5.2 9.98 5.03 10.9 5.03 11.9C5.03 12.96 5.18 13.93 5.48 14.81C5.8 15.69 6.25 16.45 6.83 17.09C7.41 17.71 8.1 18.19 8.9 18.53C9.72 18.87 10.64 19.04 11.66 19.04C12.84 19.04 13.85 18.85 14.69 18.47C15.53 18.09 16.17 17.69 16.61 17.27L18.41 21.17ZM22.318 11.99C22.318 10.47 22.608 9.03 23.188 7.67C23.768 6.31 24.568 5.11 25.588 4.07C26.628 3.01 27.828 2.18 29.188 1.58C30.548 0.979999 32.008 0.679999 33.568 0.679999C35.108 0.679999 36.558 0.979999 37.918 1.58C39.278 2.18 40.478 3.01 41.518 4.07C42.578 5.11 43.398 6.31 43.978 7.67C44.578 9.03 44.878 10.47 44.878 11.99C44.878 13.55 44.578 15.01 43.978 16.37C43.398 17.73 42.578 18.93 41.518 19.97C40.478 20.99 39.278 21.79 37.918 22.37C36.558 22.95 35.108 23.24 33.568 23.24C32.008 23.24 30.548 22.95 29.188 22.37C27.828 21.79 26.628 20.99 25.588 19.97C24.568 18.93 23.768 17.73 23.188 16.37C22.608 15.01 22.318 13.55 22.318 11.99ZM26.818 11.99C26.818 12.97 26.988 13.89 27.328 14.75C27.688 15.59 28.178 16.34 28.798 17C29.438 17.64 30.168 18.14 30.988 18.5C31.828 18.86 32.738 19.04 33.718 19.04C34.658 19.04 35.528 18.86 36.328 18.5C37.148 18.14 37.858 17.64 38.458 17C39.058 16.34 39.528 15.59 39.868 14.75C40.208 13.89 40.378 12.97 40.378 11.99C40.378 10.99 40.198 10.06 39.838 9.2C39.498 8.34 39.018 7.59 38.398 6.95C37.798 6.29 37.088 5.78 36.268 5.42C35.448 5.06 34.558 4.88 33.598 4.88C32.638 4.88 31.748 5.06 30.928 5.42C30.108 5.78 29.388 6.29 28.768 6.95C28.148 7.59 27.668 8.34 27.328 9.2C26.988 10.06 26.818 10.99 26.818 11.99ZM69.8848 23.9L53.1448 8.78L54.4348 9.5L54.5248 23H50.1148V0.0499986H50.2948L66.6748 15.11L65.7148 14.69L65.6248 0.919998H70.0048V23.9H69.8848ZM88.381 6.26C87.541 5.8 86.681 5.42 85.801 5.12C84.941 4.82 84.131 4.67 83.371 4.67C82.431 4.67 81.691 4.86 81.151 5.24C80.611 5.62 80.341 6.19 80.341 6.95C80.341 7.47 80.541 7.94 80.941 8.36C81.361 8.76 81.891 9.12 82.531 9.44C83.191 9.76 83.871 10.05 84.571 10.31C85.211 10.55 85.841 10.84 86.461 11.18C87.101 11.5 87.671 11.91 88.171 12.41C88.671 12.89 89.071 13.5 89.371 14.24C89.671 14.96 89.821 15.85 89.821 16.91C89.821 18.03 89.531 19.07 88.951 20.03C88.371 20.99 87.521 21.77 86.401 22.37C85.281 22.95 83.901 23.24 82.261 23.24C81.421 23.24 80.561 23.16 79.681 23C78.821 22.82 77.971 22.56 77.131 22.22C76.291 21.86 75.481 21.41 74.701 20.87L76.621 17.48C77.141 17.86 77.701 18.2 78.301 18.5C78.921 18.78 79.541 19 80.161 19.16C80.781 19.32 81.351 19.4 81.871 19.4C82.391 19.4 82.911 19.33 83.431 19.19C83.971 19.03 84.411 18.77 84.751 18.41C85.111 18.05 85.291 17.55 85.291 16.91C85.291 16.47 85.141 16.07 84.841 15.71C84.561 15.35 84.171 15.02 83.671 14.72C83.191 14.42 82.661 14.16 82.081 13.94C81.401 13.68 80.701 13.38 79.981 13.04C79.261 12.7 78.581 12.29 77.941 11.81C77.321 11.31 76.811 10.7 76.411 9.98C76.031 9.24 75.841 8.34 75.841 7.28C75.841 6 76.121 4.89 76.681 3.95C77.261 3.01 78.071 2.27 79.111 1.73C80.151 1.17 81.351 0.859999 82.711 0.8C84.491 0.8 85.931 1.01 87.031 1.43C88.151 1.85 89.151 2.35 90.031 2.93L88.381 6.26ZM94.9812 0.919998H110.041V5.12H99.3312V9.83H108.811V14.03H99.3312V18.8H110.461V23H94.9812V0.919998ZM135.632 23.9L118.892 8.78L120.182 9.5L120.272 23H115.862V0.0499986H116.042L132.422 15.11L131.462 14.69L131.372 0.919998H135.752V23.9H135.632ZM140.838 0.919998H155.718V5.12H150.348V23H145.998V5.12H140.838V0.919998ZM172.606 6.26C171.766 5.8 170.906 5.42 170.026 5.12C169.166 4.82 168.356 4.67 167.596 4.67C166.656 4.67 165.916 4.86 165.376 5.24C164.836 5.62 164.566 6.19 164.566 6.95C164.566 7.47 164.766 7.94 165.166 8.36C165.586 8.76 166.116 9.12 166.756 9.44C167.416 9.76 168.096 10.05 168.796 10.31C169.436 10.55 170.066 10.84 170.686 11.18C171.326 11.5 171.896 11.91 172.396 12.41C172.896 12.89 173.296 13.5 173.596 14.24C173.896 14.96 174.046 15.85 174.046 16.91C174.046 18.03 173.756 19.07 173.176 20.03C172.596 20.99 171.746 21.77 170.626 22.37C169.506 22.95 168.126 23.24 166.486 23.24C165.646 23.24 164.786 23.16 163.906 23C163.046 22.82 162.196 22.56 161.356 22.22C160.516 21.86 159.706 21.41 158.926 20.87L160.846 17.48C161.366 17.86 161.926 18.2 162.526 18.5C163.146 18.78 163.766 19 164.386 19.16C165.006 19.32 165.576 19.4 166.096 19.4C166.616 19.4 167.136 19.33 167.656 19.19C168.196 19.03 168.636 18.77 168.976 18.41C169.336 18.05 169.516 17.55 169.516 16.91C169.516 16.47 169.366 16.07 169.066 15.71C168.786 15.35 168.396 15.02 167.896 14.72C167.416 14.42 166.886 14.16 166.306 13.94C165.626 13.68 164.926 13.38 164.206 13.04C163.486 12.7 162.806 12.29 162.166 11.81C161.546 11.31 161.036 10.7 160.636 9.98C160.256 9.24 160.066 8.34 160.066 7.28C160.066 6 160.346 4.89 160.906 3.95C161.486 3.01 162.296 2.27 163.336 1.73C164.376 1.17 165.576 0.859999 166.936 0.8C168.716 0.8 170.156 1.01 171.256 1.43C172.376 1.85 173.376 2.35 174.256 2.93L172.606 6.26Z" fill="url(#paint0_linear_14_16)"/>
<defs>
<linearGradient id="paint0_linear_14_16" x1="-1" y1="15" x2="176" y2="15" gradientUnits="userSpaceOnUse">
<stop stop-color="#3F38A0"/>
<stop offset="0.571667" stop-color="#8D6AFA"/>
<stop offset="1" stop-color="#14D0DC"/>
</linearGradient>
</defs>
</svg>
